<?xml version="1.0" encoding="UTF-8"?>
<svg xmlns="http://www.w3.org/2000/svg" viewBox="0 0 100 100" width="100" height="100">
  <defs>
    <linearGradient id="buzzGradient" x1="0%" y1="0%" x2="100%" y2="100%">
      <stop offset="0%" style="stop-color:#FBBF24;stop-opacity:1" />
      <stop offset="100%" style="stop-color:#F97316;stop-opacity:1" />
    </linearGradient>
  </defs>
  
  <!-- Background circle with gradient -->
  <circle cx="50" cy="50" r="45" fill="url(#buzzGradient)" />
  
  <!-- Bee body -->
  <ellipse cx="50" cy="55" rx="20" ry="25" fill="#FCD34D" />
  
  <!-- Bee stripes -->
  <ellipse cx="50" cy="48" rx="18" ry="3" fill="#92400E" />
  <ellipse cx="50" cy="55" rx="18" ry="3" fill="#92400E" />
  <ellipse cx="50" cy="62" rx="18" ry="3" fill="#92400E" />
  
  <!-- Bee head -->
  <circle cx="50" cy="35" r="12" fill="#FCD34D" />
  
  <!-- Antennae -->
  <circle cx="45" cy="27" r="2" fill="#92400E" />
  <circle cx="55" cy="27" r="2" fill="#92400E" />
  <line x1="45" y1="29" x2="45" y2="25" stroke="#92400E" stroke-width="2" stroke-linecap="round" />
  <line x1="55" y1="29" x2="55" y2="25" stroke="#92400E" stroke-width="2" stroke-linecap="round" />
  
  <!-- Eyes -->
  <circle cx="46" cy="33" r="2" fill="#92400E" />
  <circle cx="54" cy="33" r="2" fill="#92400E" />
  
  <!-- Wings -->
  <ellipse cx="35" cy="45" rx="8" ry="12" fill="#FFFFFF" fill-opacity="0.8" transform="rotate(-20 35 45)" />
  <ellipse cx="65" cy="45" rx="8" ry="12" fill="#FFFFFF" fill-opacity="0.8" transform="rotate(20 65 45)" />
  
  <!-- Wing details -->
  <ellipse cx="35" cy="45" rx="6" ry="10" fill="none" stroke="#E5E7EB" stroke-width="1" transform="rotate(-20 35 45)" />
  <ellipse cx="65" cy="45" rx="6" ry="10" fill="none" stroke="#E5E7EB" stroke-width="1" transform="rotate(20 65 45)" />
</svg> 